<svg height="20" viewBox="0 0 16 20" width="16" xmlns="http://www.w3.org/2000/svg"><path d="m15.6646647 15.1321632c-.2872634.6801404-.6272899 1.3062057-1.0212515 1.881802-.5370075.7846839-.9766967 1.3278354-1.3155506 1.6294529-.525282.4950844-1.0880844.7486348-1.690752.763055-.4326541 0-.9544189-.126175-1.5617763-.3821277-.60935058-.254754-1.16933905-.3809273-1.68137202-.3809273-.5370072 0-1.11294174.1261733-1.72897564.3809273-.61697261.2559527-1.11399711.3893379-1.49400611.4025562-.57792767.0252347-1.15397886-.2355258-1.72897564-.7834835-.36699365-.3280541-.82602919-.8904321-1.37593431-1.687134-.59000421-.8507751-1.07506947-1.8373392-1.45507831-2.9620944-.40697641-1.2148799-.61099227-2.3913066-.61099227-3.530241 0-1.30464381.27506966-2.42987974.82602966-3.3728237.43300603-.75740684 1.00905763-1.35487314 1.73003053-1.79347986.72097355-.43860606 1.49998579-.66211506 2.33891322-.67641515.45903522 0 1.06099968.14552124 1.80905754.43151677.74594762.28695678 1.22491595.43247802 1.43491125.43247802.15699835 0 .68908107-.17015559 1.59108912-.50938418.85299768-.31459506 1.57291538-.44485562 2.16268528-.39354472 1.5981243.13218288 2.7987692.7778358 3.5972452 1.94104411-1.4292833.88754736-2.1363039 2.13066609-2.122234 3.72539101.0128976 1.2421573.4525868 2.2758264 1.3167228 3.0965618.3916164.3809261.8289611.6753332 1.3155494.8844226-.105524.3136335-.2169119.614049-.3353353.9024478zm-3.0932361-14.74595794c0 .96545877-.3965957 1.86690489-1.1871056 2.70127406-.9539727.99190174-2.10784936 1.56506884-3.35913392 1.47462536-.015944-.11582527-.02518908-.23772736-.02518908-.36582595 0-.9268394.45367277-1.91874065 1.25932384-2.72975467.40222173-.41063059.91377586-.75206438 1.53412576-1.02443258.6190098-.26830431 1.2045236-.41668237 1.7552008-.44209148.0160793.12906676.0227782.25814163.0227782.38619274z" fill="#161637" fill-rule="evenodd"/></svg>