<svg height="22" viewBox="0 0 24 22" width="24" xmlns="http://www.w3.org/2000/svg"><g fill="none" fill-rule="evenodd"><path d="m0-1h24v24h-24z"/><g fill-rule="nonzero"><path d="m5.13715602.70707897 6.63549318-.70707897 6.6354931.70707897 5.137156 6.95094579-11.7726491 13.81800084-11.7726492-13.81800084z" fill="#fdb300"/><g transform="translate(0 7.658025)"><path d="m4.76851314 0 7.00414666 13.8180054-11.7726598-13.8180054z" fill="#ea6c00"/><path d="m16.541141 0 7.0041467 13.8180054-11.7726598-13.8180054z" fill="#ea6c00" transform="matrix(-1 0 0 1 35.317916 0)"/><path d="m4.76851314 0h14.00829326l-7.0041466 13.8180054z" fill="#fdad00"/></g><g><path d="m11.7726598 0-6.63552313.70706962-.36862353 6.95095007z" fill="#fdd231"/><path d="m18.7767702 0-6.6355231.70706962-.3686235 6.95095007z" fill="#fdd231" transform="matrix(-1 0 0 1 30.549394 0)"/><path d="m18.4081211 7.65801969 5.1371965-6.95095007-.3686834 6.95095007z" fill="#fdad00" transform="matrix(-1 0 0 1 41.953438 0)"/><path d="m0 7.65801969 5.13713667-6.95095007-.36862353 6.95095007z" fill="#fdad00"/><path d="m11.7726598 0-7.00414666 7.65801969h14.00829326z" fill="#feeeb7"/></g></g></g></svg>